<svg id="svg" xmlns="http://www.w3.org/2000/svg" xmlns:xlink="http://www.w3.org/1999/xlink" width="400" height="400" viewBox="0, 0, 400,400"><g id="svgg"><path id="path0" d="M356.306 48.300 C 355.966 48.685,354.792 50.620,353.698 52.600 C 335.201 86.066,315.091 102.631,280.600 112.814 C 274.225 114.696,274.157 114.559,278.031 107.721 C 285.218 95.037,289.578 82.174,291.359 68.400 C 292.260 61.433,291.048 60.709,286.390 65.432 C 270.240 81.811,250.657 92.070,227.598 96.234 C 222.052 97.235,221.044 97.288,204.400 97.443 C 157.008 97.885,155.106 98.017,141.528 101.823 C 129.208 105.277,111.640 113.279,106.396 117.827 C 105.924 118.236,102.160 118.378,89.196 118.476 L 72.600 118.602 69.400 119.724 C 58.988 123.375,51.793 131.721,50.023 142.200 C 49.666 144.311,49.581 166.118,49.675 230.800 L 49.800 316.600 51.054 320.104 C 54.435 329.555,61.792 336.445,71.022 338.806 C 75.845 340.039,244.495 340.055,249.314 338.822 C 259.781 336.145,268.141 327.442,270.286 316.989 L 270.946 313.777 274.173 311.604 C 282.479 306.010,290.305 299.570,298.807 291.333 C 304.233 286.075,304.995 284.908,302.700 285.371 C 300.528 285.810,286.744 286.080,284.461 285.729 L 282.322 285.400 286.861 282.401 C 302.279 272.212,314.951 261.051,328.266 245.934 C 338.758 234.021,351.556 213.943,358.310 198.800 C 364.872 184.086,370.556 166.256,372.401 154.600 C 372.645 153.060,373.026 150.990,373.248 150.000 C 375.526 139.839,376.426 109.064,374.821 96.200 C 373.168 82.952,370.251 71.394,365.886 60.800 C 361.064 49.099,358.526 45.786,356.306 48.300 M361.780 67.373 C 372.250 95.328,372.328 137.332,361.972 171.373 C 348.433 215.879,318.467 255.764,281.499 278.481 C 276.737 281.408,275.810 282.568,275.821 285.593 C 275.837 290.206,278.837 291.963,286.749 291.992 C 288.685 291.999,288.845 292.064,288.360 292.649 C 287.330 293.889,280.970 299.098,276.000 302.772 L 271.000 306.467 270.800 223.734 L 270.600 141.000 269.674 138.435 C 266.302 129.097,259.957 122.724,251.008 119.688 L 247.800 118.600 182.637 118.400 L 117.474 118.200 122.637 115.642 C 132.747 110.631,142.314 107.480,154.000 105.312 C 159.330 104.323,159.782 104.306,188.800 104.002 C 220.160 103.675,223.218 103.498,232.858 101.454 C 250.310 97.755,266.877 90.013,279.941 79.451 C 281.779 77.965,283.376 76.843,283.490 76.957 C 284.667 78.134,276.988 97.265,271.592 106.600 C 268.186 112.491,268.089 114.889,271.134 117.934 C 274.101 120.901,276.482 120.745,288.600 116.791 C 318.085 107.169,338.716 90.134,355.831 61.280 L 357.800 57.960 359.062 60.722 C 359.756 62.241,360.979 65.234,361.780 67.373 M249.543 125.551 C 255.818 127.899,260.530 132.438,263.296 138.800 L 264.600 141.800 264.706 227.800 C 264.781 288.942,264.685 314.412,264.374 315.918 C 262.756 323.741,255.796 330.900,247.779 332.989 C 244.189 333.924,76.183 333.916,72.584 332.980 C 65.519 331.144,59.988 326.122,57.048 318.876 L 55.800 315.800 55.800 229.200 L 55.800 142.600 56.735 140.000 C 59.588 132.068,65.972 126.384,73.800 124.806 C 74.680 124.628,114.010 124.509,161.200 124.542 L 247.000 124.600 249.543 125.551 M112.000 228.993 L 112.000 296.042 148.500 295.886 C 180.595 295.749,185.410 295.649,188.400 295.060 C 211.619 290.485,224.002 277.363,223.999 257.337 C 223.997 240.866,215.708 228.419,201.800 224.003 C 199.406 223.243,199.399 223.203,201.476 222.111 C 212.666 216.225,217.412 208.080,217.388 194.800 C 217.355 176.026,208.244 166.283,187.600 162.945 C 183.936 162.352,178.843 162.245,147.700 162.104 L 112.000 161.943 112.000 228.993 M177.091 185.710 C 185.367 187.660,189.012 192.166,188.972 200.400 C 188.931 208.775,186.169 212.727,178.578 215.269 C 175.842 216.186,175.542 216.200,158.600 216.200 L 141.400 216.200 141.295 201.001 C 141.237 192.642,141.284 185.558,141.399 185.258 C 141.707 184.457,173.478 184.859,177.091 185.710 M182.693 237.670 C 193.436 241.554,198.027 253.370,192.888 263.911 C 189.064 271.756,184.509 273.000,159.600 273.000 L 141.400 273.000 141.296 254.676 L 141.192 236.351 160.496 236.488 L 179.800 236.624 182.693 237.670 " stroke="none" fill="#5c2c94" fill-rule="evenodd"></path><path id="path1" d="M355.831 61.280 C 338.716 90.134,318.085 107.169,288.600 116.791 C 276.482 120.745,274.101 120.901,271.134 117.934 C 268.089 114.889,268.186 112.491,271.592 106.600 C 276.988 97.265,284.667 78.134,283.490 76.957 C 283.376 76.843,281.779 77.965,279.941 79.451 C 266.877 90.013,250.310 97.755,232.858 101.454 C 223.218 103.498,220.160 103.675,188.800 104.002 C 159.782 104.306,159.330 104.323,154.000 105.312 C 142.314 107.480,132.747 110.631,122.637 115.642 L 117.474 118.200 182.637 118.400 L 247.800 118.600 251.008 119.688 C 259.957 122.724,266.302 129.097,269.674 138.435 L 270.600 141.000 270.800 223.734 L 271.000 306.467 276.000 302.772 C 280.970 299.098,287.330 293.889,288.360 292.649 C 288.845 292.064,288.685 291.999,286.749 291.992 C 278.837 291.963,275.837 290.206,275.821 285.593 C 275.810 282.568,276.737 281.408,281.499 278.481 C 314.716 258.069,342.736 223.309,357.663 184.000 C 373.244 142.965,373.811 93.013,359.062 60.722 L 357.800 57.960 355.831 61.280 M73.800 124.806 C 65.972 126.384,59.588 132.068,56.735 140.000 L 55.800 142.600 55.800 229.200 L 55.800 315.800 57.048 318.876 C 59.988 326.122,65.519 331.144,72.584 332.980 C 76.183 333.916,244.189 333.924,247.779 332.989 C 255.796 330.900,262.756 323.741,264.374 315.918 C 264.685 314.412,264.781 288.942,264.706 227.800 L 264.600 141.800 263.296 138.800 C 260.530 132.438,255.818 127.899,249.543 125.551 L 247.000 124.600 161.200 124.542 C 114.010 124.509,74.680 124.628,73.800 124.806 M187.600 162.945 C 208.244 166.283,217.355 176.026,217.388 194.800 C 217.412 208.080,212.666 216.225,201.476 222.111 C 199.399 223.203,199.406 223.243,201.800 224.003 C 215.708 228.419,223.997 240.866,223.999 257.337 C 224.002 277.363,211.619 290.485,188.400 295.060 C 185.410 295.649,180.595 295.749,148.500 295.886 L 112.000 296.042 112.000 228.993 L 112.000 161.943 147.700 162.104 C 178.843 162.245,183.936 162.352,187.600 162.945 M141.399 185.258 C 141.284 185.558,141.237 192.642,141.295 201.001 L 141.400 216.200 158.600 216.200 C 175.542 216.200,175.842 216.186,178.578 215.269 C 186.169 212.727,188.931 208.775,188.972 200.400 C 189.012 192.166,185.367 187.660,177.091 185.710 C 173.478 184.859,141.707 184.457,141.399 185.258 M141.296 254.676 L 141.400 273.000 159.600 273.000 C 184.509 273.000,189.064 271.756,192.888 263.911 C 198.027 253.370,193.436 241.554,182.693 237.670 L 179.800 236.624 160.496 236.488 L 141.192 236.351 141.296 254.676 " stroke="none" fill="#fbfbfb" fill-rule="evenodd"></path></g></svg>