<?xml version="1.0" encoding="UTF-8" standalone="no"?><!DOCTYPE svg PUBLIC "-//W3C//DTD SVG 1.1//EN" "http://www.w3.org/Graphics/SVG/1.1/DTD/svg11.dtd"><svg width="100%" height="100%" viewBox="0 0 1667 1667" version="1.1" xmlns="http://www.w3.org/2000/svg" xmlns:xlink="http://www.w3.org/1999/xlink" xml:space="preserve" xmlns:serif="http://www.serif.com/" style="fill-rule:evenodd;clip-rule:evenodd;stroke-linejoin:round;stroke-miterlimit:2;"><g id="svgg"><path id="path0" d="M1484.61,201.25c-1.416,1.604 -6.308,9.667 -10.866,17.917c-77.071,139.441 -160.863,208.462 -304.575,250.891c-26.563,7.842 -26.846,7.271 -10.704,-21.22c29.945,-52.85 48.112,-106.446 55.533,-163.838c3.754,-29.029 -1.296,-32.046 -20.704,-12.367c-67.292,68.246 -148.888,110.992 -244.967,128.342c-23.108,4.171 -27.308,4.392 -96.658,5.038c-197.467,1.841 -205.392,2.391 -261.967,18.249c-51.333,14.392 -124.533,47.734 -146.383,66.684c-1.967,1.704 -17.65,2.296 -71.667,2.704l-69.15,0.525l-13.333,4.675c-43.384,15.212 -73.363,49.988 -80.738,93.65c-1.487,8.796 -1.841,99.658 -1.45,369.167l0.521,357.5l5.225,14.6c14.088,39.379 44.742,68.087 83.2,77.925c20.096,5.137 722.804,5.204 742.883,0.066c43.613,-11.154 78.446,-47.416 87.384,-90.97l2.75,-13.384l13.446,-9.054c34.608,-23.308 67.216,-50.142 102.641,-84.462c22.609,-21.909 25.784,-26.771 16.221,-24.842c-9.05,1.829 -66.483,2.954 -75.996,1.492l-8.912,-1.371l18.912,-12.496c64.242,-42.454 117.042,-88.958 172.521,-151.946c43.717,-49.637 97.042,-133.296 125.183,-196.392c27.342,-61.308 51.025,-135.6 58.713,-184.166c1.017,-6.417 2.604,-15.042 3.529,-19.167c9.492,-42.337 13.242,-170.567 6.554,-224.167c-6.887,-55.2 -19.041,-103.358 -37.229,-147.5c-20.092,-48.754 -30.667,-62.558 -39.917,-52.083m10.455,50c40.637,90.546 54,205.808 38.975,336.25c-26.563,230.608 -165.513,449.329 -365.205,574.854c-32.7,20.554 -29.737,47.921 5.717,52.792c7.121,0.979 16.275,2.287 20.338,2.9l7.383,1.121l-20.717,17.133c-11.396,9.421 -27.846,22.233 -36.554,28.475l-15.833,11.342l-1.667,-688.617l-3.892,-10.833c-14.916,-41.513 -45.2,-69.7 -85.958,-80c-12.904,-3.263 -18.867,-3.334 -280.833,-3.417l-267.65,-0.079l11.666,-6.008c41.709,-21.48 89.071,-38.105 131.667,-46.217c30.742,-5.85 41.671,-6.363 162.5,-7.613c76.988,-0.795 127.454,-1.983 135.833,-3.191c97.892,-14.146 166.65,-44.029 246.8,-107.259c3.655,-2.879 3.717,-2.862 2.871,0.834c-8.641,37.787 -26.804,81.641 -50.216,121.283c-20.425,34.575 -3.605,63.117 31.87,54.083c142.467,-36.275 236.792,-106.779 317.071,-237c13.559,-21.991 11.467,-20.562 15.834,-10.833m-455.3,271.879c26.145,9.784 45.779,28.696 57.304,55.204l5.433,12.5l0.442,358.334c0.312,254.758 -0.088,360.883 -1.384,367.158c-6.741,32.596 -35.741,62.425 -69.145,71.129c-14.959,3.896 -714.984,3.863 -729.98,-0.037c-29.437,-7.65 -52.483,-28.575 -64.733,-58.767l-5.2,-12.817l0,-721.666l3.896,-10.834c11.887,-33.05 38.487,-56.733 71.104,-63.308c3.667,-0.742 167.542,-1.237 364.167,-1.1l357.5,0.242l10.596,3.962m-573.096,431.454l0,277.917l156.25,-0.917c174.462,-1.025 164.262,-0.354 202.666,-13.391c55.5,-18.846 93.467,-59.004 103.396,-109.367c15.921,-80.796 -17.691,-149.875 -84.391,-173.433c-15.421,-5.442 -15.275,-4.975 -3.446,-11.225c43.516,-22.996 64.125,-58.129 64.516,-110c0.53,-69.984 -30.979,-112.104 -96.529,-129.05c-30.871,-7.984 -41.758,-8.45 -196.941,-8.45l-145.521,0l0,277.916m272.971,-180.67c34.516,9.033 47.862,26.3 47.862,61.929c0,31.825 -11.008,49.396 -37.079,59.183c-15.917,5.975 -25.2,6.621 -95.004,6.633l-67.084,0.009l0,-131.946l70.417,0.725c58.267,0.604 72.225,1.2 80.888,3.467m12.029,213.445c34.741,8.484 52.679,26.317 58.108,57.78c7.708,44.683 -9.458,75.841 -48.458,87.945l-13.817,4.288l-159.167,1.167l0,-153.538l77.084,0.058c58.679,0.046 79.271,0.596 86.25,2.3" style="fill:#fbfbfb;"/><path id="path1" d="M1479.23,262.083c-80.279,130.221 -174.604,200.725 -317.071,237c-35.475,9.034 -52.295,-19.508 -31.87,-54.083c23.412,-39.642 41.575,-83.496 50.216,-121.283c0.846,-3.696 0.784,-3.713 -2.871,-0.834c-80.15,63.23 -148.908,93.113 -246.8,107.259c-8.379,1.208 -58.845,2.396 -135.833,3.191c-120.829,1.25 -131.758,1.763 -162.5,7.613c-42.596,8.112 -89.958,24.737 -131.667,46.217l-11.666,6.008l267.65,0.079c261.966,0.083 267.929,0.154 280.833,3.417c40.758,10.3 71.042,38.487 85.958,80l3.892,10.833l1.667,688.617l15.833,-11.342c8.708,-6.242 25.158,-19.054 36.554,-28.475l20.717,-17.133l-7.383,-1.121c-4.063,-0.613 -13.217,-1.921 -20.338,-2.9c-35.454,-4.871 -38.417,-32.238 -5.717,-52.792c199.692,-125.525 338.642,-344.246 365.205,-574.854c15.024,-130.442 1.662,-245.704 -38.976,-336.25c-4.366,-9.729 -2.274,-11.158 -15.833,10.833m-1171.73,257.942c-32.617,6.575 -59.217,30.258 -71.104,63.308l-3.896,10.834l0,721.666l5.2,12.817c12.25,30.192 35.296,51.117 64.733,58.767c14.996,3.9 715.021,3.933 729.98,0.037c33.404,-8.704 62.404,-38.533 69.145,-71.129c1.296,-6.275 1.696,-112.4 1.384,-367.158l-0.442,-358.334l-5.433,-12.5c-11.525,-26.508 -31.159,-45.42 -57.304,-55.204l-10.596,-3.962l-357.5,-0.242c-196.625,-0.137 -360.5,0.358 -364.167,1.1m469.271,159.146c88.821,11.675 129.496,54.279 128.887,134.996c-0.391,51.87 -21,87.004 -64.516,110c-11.829,6.25 -11.975,5.783 3.446,11.225c66.7,23.558 100.312,92.637 84.391,173.433c-9.929,50.362 -47.896,90.521 -103.396,109.367c-38.404,13.037 -28.204,12.366 -202.666,13.391l-156.25,0.917l0,-555.833l145.521,0c119.933,0 148.875,0.441 164.583,2.504m-188.438,156.521l0,65.975l67.084,-0.009c83.087,-0.012 93.637,-1.575 112.779,-16.708c25.767,-20.367 27.033,-76.733 2.162,-96.3c-20.5,-16.129 -27.904,-17.337 -111.608,-18.204l-70.417,-0.725l0,65.971m0,226.079l0,76.766l159.167,-1.166l13.817,-4.288c64.775,-20.104 69.541,-115.591 7.016,-140.5c-17.829,-7.104 -22.745,-7.462 -102.916,-7.525l-77.084,-0.058l0,76.771" style="fill:#5c2c94;"/><path d="M1123.88,899.815l0,109.536c0,0 31.944,-24.021 47.917,-33.149c15.358,-8.777 47.916,-21.619 47.916,-21.619c0,0 -32.558,-12.841 -47.916,-21.619c-15.973,-9.128 -47.917,-33.149 -47.917,-33.149" style="fill:#fff;"/><path d="M210.998,1009.35l0,-109.536c0,0 -31.944,24.021 -47.917,33.149c-15.358,8.778 -47.916,21.619 -47.916,21.619c0,0 32.558,12.842 47.916,21.619c15.973,9.128 47.917,33.149 47.917,33.149" style="fill:#fff;"/></g></svg>