<svg id="svg" xmlns="http://www.w3.org/2000/svg" xmlns:xlink="http://www.w3.org/1999/xlink" width="400" height="400" viewBox="0, 0, 400,400"><g id="svgg"><path id="path0" d="M356.306 48.300 C 355.966 48.685,354.792 50.620,353.698 52.600 C 335.201 86.066,315.091 102.631,280.600 112.814 C 274.225 114.696,274.157 114.559,278.031 107.721 C 285.218 95.037,289.578 82.174,291.359 68.400 C 292.260 61.433,291.048 60.709,286.390 65.432 C 270.240 81.811,250.657 92.070,227.598 96.234 C 222.052 97.235,221.044 97.288,204.400 97.443 C 157.008 97.885,155.106 98.017,141.528 101.823 C 129.208 105.277,111.640 113.279,106.396 117.827 C 105.924 118.236,102.160 118.378,89.196 118.476 L 72.600 118.602 69.400 119.724 C 58.988 123.375,51.793 131.721,50.023 142.200 C 49.666 144.311,49.581 166.118,49.675 230.800 L 49.800 316.600 51.054 320.104 C 54.435 329.555,61.792 336.445,71.022 338.806 C 75.845 340.039,244.495 340.055,249.314 338.822 C 259.781 336.145,268.141 327.442,270.286 316.989 L 270.946 313.777 274.173 311.604 C 282.479 306.010,290.305 299.570,298.807 291.333 C 304.233 286.075,304.995 284.908,302.700 285.371 C 300.528 285.810,286.744 286.080,284.461 285.729 L 282.322 285.400 286.861 282.401 C 302.279 272.212,314.951 261.051,328.266 245.934 C 338.758 234.021,351.556 213.943,358.310 198.800 C 364.872 184.086,370.556 166.256,372.401 154.600 C 372.645 153.060,373.026 150.990,373.248 150.000 C 375.526 139.839,376.426 109.064,374.821 96.200 C 373.168 82.952,370.251 71.394,365.886 60.800 C 361.064 49.099,358.526 45.786,356.306 48.300 M358.815 60.300 C 368.568 82.031,371.775 109.694,368.169 141.000 C 361.794 196.346,328.446 248.839,280.520 278.965 C 272.672 283.898,273.383 290.466,281.892 291.635 C 283.601 291.870,285.798 292.184,286.773 292.331 L 288.545 292.600 283.573 296.712 C 280.838 298.973,276.890 302.048,274.800 303.546 L 271.000 306.268 270.800 223.634 L 270.600 141.000 269.666 138.400 C 266.086 128.437,258.818 121.672,249.036 119.200 C 245.939 118.417,244.508 118.400,181.636 118.380 L 117.400 118.361 120.200 116.919 C 130.210 111.764,141.577 107.774,151.800 105.827 C 159.178 104.423,161.801 104.300,190.800 104.000 C 209.277 103.809,221.389 103.524,223.400 103.234 C 246.894 99.839,263.396 92.667,282.632 77.492 C 283.509 76.801,283.524 76.805,283.321 77.692 C 281.247 86.761,276.888 97.286,271.269 106.800 C 266.367 115.098,270.404 121.948,278.918 119.780 C 313.110 111.074,335.748 94.153,355.015 62.900 C 358.269 57.622,357.767 57.965,358.815 60.300 M249.543 125.551 C 255.818 127.899,260.530 132.438,263.296 138.800 L 264.600 141.800 264.706 227.800 C 264.781 288.942,264.685 314.412,264.374 315.918 C 262.756 323.741,255.796 330.900,247.779 332.989 C 244.189 333.924,76.183 333.916,72.584 332.980 C 65.519 331.144,59.988 326.122,57.048 318.876 L 55.800 315.800 55.800 229.200 L 55.800 142.600 56.735 140.000 C 59.588 132.068,65.972 126.384,73.800 124.806 C 74.680 124.628,114.010 124.509,161.200 124.542 L 247.000 124.600 249.543 125.551 M112.000 229.100 L 112.000 295.800 149.500 295.580 C 191.371 295.334,188.923 295.495,198.140 292.366 C 211.460 287.843,220.572 278.205,222.955 266.118 C 226.776 246.727,218.709 230.148,202.701 224.494 C 199.000 223.188,199.035 223.300,201.874 221.800 C 212.318 216.281,217.264 207.849,217.358 195.400 C 217.485 178.604,209.923 168.495,194.191 164.428 C 186.782 162.512,184.169 162.400,146.925 162.400 L 112.000 162.400 112.000 229.100 M177.513 185.739 C 185.797 187.907,189.000 192.051,189.000 200.602 C 189.000 208.240,186.358 212.457,180.101 214.806 C 176.281 216.240,174.053 216.395,157.300 216.398 L 141.200 216.400 141.200 200.566 L 141.200 184.733 158.100 184.907 C 172.084 185.052,175.434 185.195,177.513 185.739 M180.400 236.966 C 188.738 239.002,193.043 243.282,194.346 250.833 C 196.196 261.557,192.076 269.035,182.716 271.940 L 179.400 272.969 160.300 273.109 L 141.200 273.249 141.200 254.825 L 141.200 236.400 159.700 236.414 C 173.783 236.425,178.725 236.557,180.400 236.966 " stroke="none" fill="#fbfbfb" fill-rule="evenodd"></path><path id="path1" d="M355.015 62.900 C 335.748 94.153,313.110 111.074,278.918 119.780 C 270.404 121.948,266.367 115.098,271.269 106.800 C 276.888 97.286,281.247 86.761,283.321 77.692 C 283.524 76.805,283.509 76.801,282.632 77.492 C 263.396 92.667,246.894 99.839,223.400 103.234 C 221.389 103.524,209.277 103.809,190.800 104.000 C 161.801 104.300,159.178 104.423,151.800 105.827 C 141.577 107.774,130.210 111.764,120.200 116.919 L 117.400 118.361 181.636 118.380 C 244.508 118.400,245.939 118.417,249.036 119.200 C 258.818 121.672,266.086 128.437,269.666 138.400 L 270.600 141.000 270.800 223.634 L 271.000 306.268 274.800 303.546 C 276.890 302.048,280.838 298.973,283.573 296.712 L 288.545 292.600 286.773 292.331 C 285.798 292.184,283.601 291.870,281.892 291.635 C 273.383 290.466,272.672 283.898,280.520 278.965 C 328.446 248.839,361.794 196.346,368.169 141.000 C 371.775 109.694,368.568 82.031,358.815 60.300 C 357.767 57.965,358.269 57.622,355.015 62.900 M73.800 124.806 C 65.972 126.384,59.588 132.068,56.735 140.000 L 55.800 142.600 55.800 229.200 L 55.800 315.800 57.048 318.876 C 59.988 326.122,65.519 331.144,72.584 332.980 C 76.183 333.916,244.189 333.924,247.779 332.989 C 255.796 330.900,262.756 323.741,264.374 315.918 C 264.685 314.412,264.781 288.942,264.706 227.800 L 264.600 141.800 263.296 138.800 C 260.530 132.438,255.818 127.899,249.543 125.551 L 247.000 124.600 161.200 124.542 C 114.010 124.509,74.680 124.628,73.800 124.806 M186.425 163.001 C 207.742 165.803,217.504 176.028,217.358 195.400 C 217.264 207.849,212.318 216.281,201.874 221.800 C 199.035 223.300,199.000 223.188,202.701 224.494 C 218.709 230.148,226.776 246.727,222.955 266.118 C 220.572 278.205,211.460 287.843,198.140 292.366 C 188.923 295.495,191.371 295.334,149.500 295.580 L 112.000 295.800 112.000 229.100 L 112.000 162.400 146.925 162.400 C 175.709 162.400,182.655 162.506,186.425 163.001 M141.200 200.566 L 141.200 216.400 157.300 216.398 C 177.241 216.395,179.773 216.020,184.367 212.388 C 190.551 207.500,190.855 193.972,184.886 189.276 C 179.966 185.405,178.189 185.115,158.100 184.907 L 141.200 184.733 141.200 200.566 M141.200 254.825 L 141.200 273.249 160.300 273.109 L 179.400 272.969 182.716 271.940 C 198.262 267.115,199.406 244.198,184.400 238.220 C 180.121 236.515,178.941 236.429,159.700 236.414 L 141.200 236.400 141.200 254.825 " stroke="none" fill="#5c2c94" fill-rule="evenodd"></path></g></svg>